<svg xmlns="http://www.w3.org/2000/svg" id="canvas" viewBox="249.252 336.592 1074.689 161.869"><path d="M 320.03,362.48 C 318.32 362.35, 316.94 362.66, 314.89 364.61 C 312.84 366.55, 312.39 368.47, 309.77 372.20 C 307.15 375.93, 305.39 378.42, 301.79 383.26 C 298.18 388.09, 295.95 390.88, 291.74 396.38 C 287.54 401.89, 285.09 404.95, 280.77 410.76 C 276.46 416.57, 273.99 419.71, 270.16 425.44 C 266.34 431.17, 264.51 434.14, 261.63 439.40 C 258.75 444.66, 257.56 447.17, 255.76 451.74 C 253.97 456.30, 253.16 458.25, 252.64 462.22 C 252.11 466.20, 251.99 468.24, 253.14 471.61 C 254.29 474.98, 255.55 476.83, 258.39 479.07 C 261.23 481.31, 263.18 481.84, 267.32 482.81 C 271.45 483.78, 273.90 483.84, 279.07 483.90 C 284.23 483.97, 287.33 483.68, 293.13 483.12 C 298.94 482.56, 302.14 482.02, 308.10 481.11 C 314.05 480.21, 317.32 479.64, 322.89 478.58 C 328.47 477.52, 331.30 476.83, 335.96 475.81 C 340.61 474.80, 342.84 474.57, 346.18 473.50 C 349.52 472.43, 350.85 471.73, 352.66 470.45 C 354.47 469.16, 354.96 468.28, 355.24 467.07 C 355.51 465.86, 355.07 465.01, 354.03 464.39 C 352.99 463.78, 352.13 463.69, 350.05 463.98 C 347.96 464.26, 346.77 464.73, 343.62 465.83 C 340.46 466.92, 338.64 468.07, 334.26 469.46 C 329.88 470.86, 327.12 471.62, 321.72 472.79 C 316.31 473.96, 313.06 474.53, 307.25 475.33 C 301.45 476.14, 298.24 476.55, 292.68 476.81 C 287.11 477.07, 284.07 477.05, 279.43 476.63 C 274.79 476.21, 272.58 475.64, 269.48 474.68 C 266.38 473.72, 265.60 473.06, 263.93 471.84 C 262.26 470.62, 261.91 470.40, 261.12 468.60 C 260.32 466.80, 259.87 465.83, 259.95 462.85 C 260.02 459.88, 260.23 457.95, 261.49 453.74 C 262.76 449.53, 263.73 446.95, 266.27 441.82 C 268.81 436.69, 270.52 433.73, 274.19 428.09 C 277.86 422.46, 280.28 419.33, 284.61 413.64 C 288.94 407.96, 291.42 404.93, 295.84 399.66 C 300.25 394.39, 302.66 391.75, 306.69 387.28 C 310.72 382.80, 312.85 380.60, 315.99 377.29 C 319.13 373.98, 320.92 373.13, 322.41 370.72 C 323.90 368.31, 323.91 366.88, 323.43 365.23 C 322.96 363.58, 321.74 362.61, 320.03 362.48" style="stroke: black; fill: black;"/><path d="M 278.44,419.67 C 279.64 420.75, 280.68 421.01, 282.88 420.93 C 285.08 420.84, 286.38 420.38, 289.43 419.26 C 292.48 418.13, 294.35 416.84, 298.15 415.28 C 301.95 413.73, 304.21 412.87, 308.43 411.50 C 312.66 410.12, 315.01 409.60, 319.26 408.40 C 323.52 407.19, 326.03 406.71, 329.70 405.48 C 333.38 404.25, 336.24 403.81, 337.62 402.25 C 338.99 400.69, 338.55 398.50, 336.60 397.68 C 334.65 396.86, 331.74 397.50, 327.87 398.16 C 324.00 398.83, 321.57 399.87, 317.24 401.01 C 312.92 402.15, 310.63 402.79, 306.25 403.88 C 301.87 404.97, 299.46 405.52, 295.36 406.47 C 291.26 407.42, 288.94 407.60, 285.76 408.63 C 282.58 409.66, 281.23 410.22, 279.45 411.60 C 277.67 412.98, 277.07 413.92, 276.86 415.53 C 276.66 417.15, 277.24 418.59, 278.44 419.67" style="stroke: black; fill: black;"/><path d="M 336.75,379.25 C 337.92 379.85, 337.93 379.76, 338.78 380.00 C 339.63 380.24, 339.79 380.55, 341.00 380.45 C 342.21 380.35, 342.83 380.09, 344.81 379.51 C 346.79 378.93, 348.17 378.41, 350.92 377.55 C 353.67 376.69, 355.34 375.94, 358.57 375.21 C 361.81 374.49, 363.66 374.26, 367.10 373.92 C 370.54 373.57, 372.62 373.60, 375.76 373.50 C 378.90 373.40, 380.45 373.60, 382.80 373.40 C 385.14 373.20, 386.08 372.88, 387.49 372.51 C 388.91 372.14, 389.32 372.05, 389.87 371.55 C 390.43 371.06, 390.16 370.46, 390.27 370.04 C 390.39 369.62, 390.01 369.66, 390.44 369.45 C 390.86 369.25, 392.02 369.42, 392.40 369.01 C 392.78 368.61, 392.65 368.19, 392.34 367.43 C 392.03 366.67, 391.76 365.95, 390.84 365.23 C 389.92 364.51, 389.39 364.30, 387.75 363.84 C 386.12 363.38, 385.17 363.06, 382.66 362.92 C 380.14 362.79, 378.50 362.92, 375.20 363.17 C 371.89 363.42, 369.76 363.81, 366.13 364.17 C 362.50 364.52, 360.57 364.68, 357.06 364.95 C 353.54 365.23, 351.77 365.21, 348.55 365.53 C 345.32 365.85, 343.55 365.75, 340.93 366.55 C 338.31 367.35, 337.12 368.16, 335.46 369.52 C 333.80 370.87, 333.12 371.83, 332.61 373.33 C 332.10 374.82, 332.10 375.80, 332.92 376.99 C 333.75 378.17, 335.58 378.65, 336.75 379.25" style="stroke: black; fill: black;"/><path d="M 420.70,425.65 C 419.15 425.84, 418.58 426.40, 417.18 427.86 C 415.79 429.32, 414.95 430.25, 413.73 432.96 C 412.51 435.68, 412.33 437.97, 411.07 441.43 C 409.81 444.90, 409.06 446.93, 407.42 450.28 C 405.79 453.64, 404.41 455.35, 402.88 458.20 C 401.36 461.04, 400.12 462.35, 399.79 464.50 C 399.46 466.64, 400.07 467.89, 401.22 468.92 C 402.36 469.94, 403.85 470.32, 405.52 469.60 C 407.19 468.89, 408.33 468.05, 409.57 465.35 C 410.82 462.66, 410.43 460.12, 411.75 456.13 C 413.07 452.13, 413.92 449.62, 416.16 445.37 C 418.41 441.12, 419.93 438.85, 422.96 434.88 C 425.98 430.91, 427.79 428.86, 431.28 425.51 C 434.78 422.17, 436.80 420.66, 440.43 418.17 C 444.07 415.69, 446.08 414.61, 449.47 413.09 C 452.86 411.57, 454.54 411.07, 457.38 410.57 C 460.23 410.07, 461.48 410.38, 463.69 410.57 C 465.90 410.76, 466.76 411.14, 468.43 411.53 C 470.09 411.91, 470.62 412.31, 472.03 412.49 C 473.43 412.68, 474.31 413.03, 475.46 412.45 C 476.61 411.87, 477.59 410.95, 477.78 409.59 C 477.97 408.23, 477.65 407.16, 476.41 405.65 C 475.18 404.14, 474.09 403.05, 471.60 402.04 C 469.11 401.03, 467.22 400.55, 463.95 400.60 C 460.67 400.65, 458.80 401.13, 455.23 402.30 C 451.67 403.46, 449.86 404.35, 446.11 406.42 C 442.36 408.49, 440.35 409.78, 436.49 412.66 C 432.62 415.55, 430.54 417.24, 426.80 420.86 C 423.06 424.49, 421.18 426.66, 417.79 430.80 C 414.41 434.94, 412.79 437.28, 409.86 441.55 C 406.94 445.83, 405.52 448.25, 403.18 452.16 C 400.84 456.08, 399.07 458.00, 398.16 461.15 C 397.26 464.30, 397.65 465.93, 398.65 467.90 C 399.66 469.87, 401.26 470.72, 403.20 470.99 C 405.13 471.25, 406.59 470.83, 408.34 469.23 C 410.08 467.62, 410.38 465.90, 411.91 462.96 C 413.44 460.02, 414.23 457.97, 415.97 454.53 C 417.71 451.09, 418.78 449.10, 420.60 445.76 C 422.43 442.42, 423.94 440.71, 425.11 437.82 C 426.28 434.94, 426.49 433.49, 426.46 431.31 C 426.42 429.13, 426.08 428.06, 424.93 426.93 C 423.78 425.80, 422.25 425.47, 420.70 425.65" style="stroke: black; fill: black;"/><path d="M 514.37,421.76 C 512.78 421.85, 511.90 422.27, 510.38 423.91 C 508.86 425.54, 508.26 426.87, 506.78 429.92 C 505.30 432.97, 504.67 435.36, 502.99 439.15 C 501.30 442.94, 500.22 445.18, 498.33 448.86 C 496.44 452.54, 495.10 454.44, 493.53 457.54 C 491.96 460.63, 490.98 462.04, 490.48 464.32 C 489.97 466.61, 490.63 467.66, 491.02 468.97 C 491.41 470.28, 491.80 470.45, 492.43 470.88 C 493.06 471.32, 493.46 471.22, 494.17 471.15 C 494.87 471.07, 494.96 471.15, 495.96 470.53 C 496.96 469.90, 497.95 469.79, 499.17 468.02 C 500.39 466.24, 500.67 464.69, 502.07 461.67 C 503.46 458.64, 504.26 456.51, 506.13 452.88 C 508.01 449.26, 509.32 447.12, 511.45 443.52 C 513.57 439.93, 515.18 438.00, 516.76 434.91 C 518.35 431.83, 519.08 430.40, 519.39 428.11 C 519.70 425.81, 519.33 424.73, 518.32 423.46 C 517.32 422.19, 515.96 421.67, 514.37 421.76" style="stroke: black; fill: black;"/><path d="M 539.71,372.92 C 541.09 372.45, 541.30 372.58, 540.97 373.38 C 540.64 374.18, 539.23 375.46, 538.07 376.92 C 536.90 378.38, 535.46 380.40, 535.15 380.67 C 534.85 380.93, 535.44 380.41, 536.54 378.26 C 537.65 376.11, 540.02 372.28, 540.66 369.91 C 541.30 367.53, 540.79 366.34, 539.76 366.37 C 538.73 366.41, 537.00 368.49, 535.51 370.07 C 534.01 371.66, 532.58 373.15, 532.29 374.28 C 531.99 375.41, 532.55 376.00, 534.03 375.73 C 535.52 375.45, 538.32 373.39, 539.71 372.92" style="stroke: black; fill: black;"/><path d="M 614.38,414.89 C 613.72 413.36, 612.81 412.34, 610.42 411.62 C 608.04 410.90, 606.24 410.76, 602.45 411.29 C 598.66 411.81, 596.16 412.59, 591.49 414.25 C 586.81 415.91, 584.25 417.08, 579.08 419.60 C 573.91 422.12, 570.88 423.65, 565.63 426.85 C 560.38 430.05, 557.47 432.01, 552.83 435.62 C 548.18 439.23, 545.81 441.20, 542.41 444.92 C 539.01 448.64, 537.30 450.42, 535.82 454.22 C 534.35 458.01, 533.93 460.43, 535.01 463.90 C 536.09 467.38, 537.79 469.38, 541.24 471.59 C 544.69 473.80, 547.14 474.09, 552.26 474.95 C 557.38 475.82, 560.45 475.87, 566.83 475.93 C 573.21 475.99, 577.58 475.64, 584.16 475.23 C 590.74 474.82, 594.47 474.50, 599.72 473.89 C 604.97 473.28, 608.36 473.36, 610.42 472.18 C 612.48 471.01, 612.25 468.76, 610.01 468.01 C 607.78 467.25, 604.49 468.13, 599.26 468.41 C 594.02 468.69, 590.31 469.14, 583.85 469.41 C 577.40 469.68, 573.04 470.05, 567.00 469.77 C 560.96 469.49, 557.95 469.02, 553.65 468.00 C 549.35 466.99, 547.74 465.99, 545.48 464.69 C 543.23 463.39, 542.92 463.07, 542.37 461.52 C 541.83 459.96, 541.76 459.40, 542.74 456.94 C 543.73 454.47, 544.54 452.52, 547.30 449.18 C 550.05 445.85, 552.23 443.72, 556.51 440.26 C 560.78 436.81, 563.61 434.86, 568.65 431.91 C 573.70 428.97, 576.73 427.53, 581.72 425.53 C 586.71 423.54, 589.27 422.74, 593.60 421.92 C 597.93 421.10, 600.12 421.56, 603.36 421.45 C 606.60 421.35, 607.72 421.83, 609.79 421.40 C 611.87 420.96, 612.82 420.59, 613.73 419.29 C 614.65 417.99, 615.04 416.42, 614.38 414.89" style="stroke: black; fill: black;"/><path d="M 838.27,364.20 C 836.61 364.80, 835.54 365.83, 834.34 368.43 C 833.13 371.03, 833.32 373.01, 832.24 377.22 C 831.16 381.43, 830.57 384.26, 828.92 389.46 C 827.27 394.65, 826.24 397.57, 823.99 403.19 C 821.74 408.81, 820.33 411.77, 817.67 417.56 C 815.02 423.34, 813.50 426.50, 810.72 432.12 C 807.95 437.74, 806.47 440.61, 803.82 445.65 C 801.16 450.69, 799.79 453.14, 797.43 457.33 C 795.08 461.53, 793.72 463.45, 792.05 466.62 C 790.38 469.78, 789.68 471.00, 789.08 473.18 C 788.48 475.35, 788.54 476.34, 789.05 477.49 C 789.57 478.65, 790.40 479.14, 791.67 478.95 C 792.94 478.75, 793.92 478.28, 795.40 476.51 C 796.88 474.74, 797.53 473.37, 799.06 470.10 C 800.59 466.83, 801.12 464.54, 803.06 460.15 C 805.00 455.76, 806.29 453.29, 808.76 448.14 C 811.24 443.00, 812.70 440.09, 815.44 434.42 C 818.17 428.75, 819.68 425.58, 822.45 419.79 C 825.22 414.00, 826.70 411.06, 829.27 405.47 C 831.85 399.88, 833.15 396.96, 835.34 391.84 C 837.52 386.71, 838.52 383.95, 840.18 379.84 C 841.85 375.74, 843.16 374.18, 843.65 371.30 C 844.13 368.43, 843.69 366.87, 842.62 365.45 C 841.54 364.03, 839.93 363.61, 838.27 364.20" style="stroke: black; fill: black;"/><path d="M 820.89,360.50 C 822.42 360.74, 823.08 360.23, 824.76 359.26 C 826.43 358.29, 826.82 357.40, 829.25 355.65 C 831.69 353.90, 833.08 352.22, 836.92 350.51 C 840.75 348.79, 843.39 348.02, 848.42 347.07 C 853.46 346.11, 856.60 345.79, 862.08 345.73 C 867.56 345.66, 870.72 345.84, 875.83 346.76 C 880.94 347.68, 883.55 348.50, 887.62 350.32 C 891.70 352.14, 893.59 353.46, 896.19 355.85 C 898.80 358.23, 899.63 359.57, 900.64 362.25 C 901.65 364.93, 901.83 366.14, 901.25 369.26 C 900.66 372.39, 900.06 374.19, 897.71 377.87 C 895.35 381.55, 893.56 383.74, 889.46 387.66 C 885.36 391.59, 882.60 393.80, 877.23 397.50 C 871.85 401.21, 868.48 403.10, 862.57 406.20 C 856.66 409.29, 853.26 410.77, 847.68 413.00 C 842.10 415.23, 839.09 416.02, 834.67 417.36 C 830.26 418.70, 828.23 418.62, 825.61 419.68 C 822.99 420.75, 822.26 421.52, 821.57 422.67 C 820.88 423.83, 820.99 424.70, 822.16 425.46 C 823.34 426.22, 824.52 426.90, 827.43 426.48 C 830.35 426.06, 832.26 425.07, 836.73 423.36 C 841.20 421.65, 844.13 420.47, 849.77 417.94 C 855.42 415.40, 858.86 413.90, 864.94 410.70 C 871.02 407.49, 874.48 405.65, 880.19 401.91 C 885.89 398.17, 888.84 396.08, 893.45 392.02 C 898.07 387.96, 900.27 385.88, 903.26 381.60 C 906.25 377.32, 907.56 375.03, 908.41 370.63 C 909.26 366.24, 909.05 363.62, 907.52 359.63 C 906.00 355.64, 904.26 353.71, 900.78 350.69 C 897.30 347.66, 894.90 346.47, 890.11 344.50 C 885.33 342.53, 882.48 341.81, 876.88 340.83 C 871.27 339.86, 867.98 339.70, 862.09 339.61 C 856.20 339.52, 853.00 339.77, 847.43 340.40 C 841.85 341.03, 838.97 341.47, 834.20 342.78 C 829.44 344.08, 826.92 344.95, 823.60 346.92 C 820.29 348.89, 818.91 350.40, 817.62 352.63 C 816.32 354.85, 816.48 356.47, 817.13 358.04 C 817.79 359.61, 819.37 360.25, 820.89 360.50" style="stroke: black; fill: black;"/><path d="M 947.51,432.86 C 947.45 431.18, 946.83 430.15, 945.12 428.65 C 943.42 427.16, 942.06 425.96, 938.98 425.38 C 935.89 424.79, 933.55 425.11, 929.68 425.74 C 925.82 426.37, 923.87 427.07, 919.64 428.54 C 915.40 430.01, 913.00 430.91, 908.50 433.10 C 904.00 435.29, 901.43 436.67, 897.13 439.48 C 892.83 442.30, 890.64 444.02, 887.01 447.18 C 883.38 450.34, 881.56 451.98, 878.99 455.28 C 876.42 458.58, 874.96 460.28, 874.17 463.68 C 873.38 467.09, 873.76 469.22, 875.03 472.28 C 876.31 475.35, 877.58 477.25, 880.56 479.00 C 883.54 480.76, 885.84 481.02, 889.94 481.07 C 894.04 481.12, 896.39 480.49, 901.06 479.24 C 905.73 477.98, 908.33 476.99, 913.28 474.79 C 918.22 472.59, 920.93 471.16, 925.80 468.23 C 930.66 465.30, 933.19 463.49, 937.60 460.16 C 942.00 456.82, 944.13 454.81, 947.80 451.55 C 951.47 448.29, 953.65 446.81, 955.93 443.84 C 958.20 440.86, 959.31 439.00, 959.19 436.67 C 959.08 434.33, 957.55 432.72, 955.34 432.16 C 953.14 431.59, 950.71 431.82, 948.17 433.86 C 945.63 435.90, 944.83 438.51, 942.65 442.36 C 940.48 446.20, 939.27 448.88, 937.29 453.07 C 935.30 457.27, 934.12 459.47, 932.73 463.33 C 931.33 467.18, 930.39 468.98, 930.32 472.36 C 930.24 475.74, 930.87 477.45, 932.35 480.23 C 933.84 483.00, 935.08 484.49, 937.75 486.24 C 940.43 487.98, 942.64 488.67, 945.72 488.97 C 948.80 489.26, 950.76 488.85, 953.14 487.71 C 955.52 486.56, 956.96 485.05, 957.61 483.24 C 958.27 481.43, 957.67 479.95, 956.41 478.64 C 955.15 477.32, 953.37 477.09, 951.31 476.68 C 949.26 476.27, 948.04 476.45, 946.12 476.59 C 944.19 476.72, 943.01 477.36, 941.69 477.34 C 940.37 477.32, 939.93 477.37, 939.52 476.50 C 939.11 475.62, 939.35 475.01, 939.62 472.95 C 939.90 470.90, 939.80 469.38, 940.89 466.21 C 941.98 463.04, 943.00 460.76, 945.08 457.10 C 947.15 453.44, 948.90 451.14, 951.28 447.92 C 953.66 444.70, 955.79 443.52, 956.96 441.01 C 958.13 438.49, 957.79 436.75, 957.12 435.33 C 956.44 433.91, 955.17 433.28, 953.59 433.92 C 952.02 434.56, 951.33 435.97, 949.23 438.53 C 947.12 441.09, 946.15 443.37, 943.06 446.71 C 939.98 450.06, 937.89 452.02, 933.80 455.25 C 929.71 458.47, 927.25 460.19, 922.63 462.84 C 918.01 465.48, 915.34 466.74, 910.69 468.46 C 906.04 470.18, 903.46 470.81, 899.38 471.43 C 895.30 472.06, 893.20 471.80, 890.28 471.60 C 887.35 471.40, 886.35 470.89, 884.77 470.41 C 883.19 469.93, 882.74 470.08, 882.37 469.20 C 881.99 468.33, 882.27 467.88, 882.89 466.03 C 883.51 464.19, 883.68 462.68, 885.47 459.98 C 887.26 457.28, 888.73 455.44, 891.83 452.52 C 894.93 449.60, 897.02 447.92, 900.96 445.39 C 904.91 442.85, 907.37 441.58, 911.55 439.83 C 915.74 438.08, 918.14 437.38, 921.88 436.64 C 925.62 435.89, 927.30 435.86, 930.26 436.12 C 933.23 436.37, 934.45 437.51, 936.70 437.90 C 938.95 438.28, 939.79 438.24, 941.53 438.06 C 943.28 437.88, 944.23 438.05, 945.43 437.01 C 946.62 435.97, 947.57 434.53, 947.51 432.86" style="stroke: black; fill: black;"/><path d="M 1002.28,444.60 C 1000.71 444.66, 1000.10 445.17, 998.53 446.45 C 996.97 447.73, 995.93 448.62, 994.46 451.01 C 992.99 453.40, 992.66 455.54, 991.18 458.40 C 989.70 461.25, 988.33 462.81, 987.05 465.28 C 985.78 467.75, 985.05 468.95, 984.81 470.75 C 984.57 472.55, 984.94 473.44, 985.84 474.28 C 986.73 475.12, 987.80 475.41, 989.28 474.94 C 990.76 474.47, 992.03 474.06, 993.26 471.92 C 994.48 469.79, 994.05 467.57, 995.42 464.27 C 996.79 460.97, 997.77 458.85, 1000.11 455.42 C 1002.45 451.99, 1004.02 450.14, 1007.12 447.13 C 1010.21 444.12, 1012.10 442.69, 1015.59 440.36 C 1019.08 438.04, 1020.99 437.03, 1024.56 435.51 C 1028.13 434.00, 1029.99 433.46, 1033.44 432.78 C 1036.89 432.09, 1038.70 432.17, 1041.81 432.11 C 1044.92 432.05, 1046.21 432.64, 1048.98 432.46 C 1051.74 432.28, 1054.15 432.42, 1055.63 431.22 C 1057.11 430.03, 1057.57 428.09, 1056.38 426.47 C 1055.20 424.85, 1052.75 423.76, 1049.72 423.12 C 1046.69 422.48, 1044.87 422.89, 1041.24 423.26 C 1037.61 423.63, 1035.52 423.89, 1031.57 424.98 C 1027.63 426.06, 1025.51 426.83, 1021.51 428.69 C 1017.51 430.56, 1015.45 431.73, 1011.56 434.32 C 1007.67 436.91, 1005.65 438.48, 1002.05 441.67 C 998.46 444.85, 996.73 446.78, 993.60 450.24 C 990.46 453.70, 988.91 455.63, 986.38 458.95 C 983.86 462.27, 981.87 463.85, 980.97 466.84 C 980.08 469.83, 980.79 471.76, 981.91 473.92 C 983.03 476.08, 984.49 477.07, 986.57 477.65 C 988.66 478.22, 990.17 477.97, 992.32 476.81 C 994.47 475.64, 995.45 474.30, 997.33 471.81 C 999.21 469.32, 999.93 467.28, 1001.72 464.36 C 1003.51 461.43, 1005.05 459.92, 1006.26 457.18 C 1007.47 454.45, 1007.73 452.88, 1007.77 450.68 C 1007.80 448.48, 1007.52 447.38, 1006.42 446.17 C 1005.32 444.95, 1003.86 444.54, 1002.28 444.60" style="stroke: black; fill: black;"/><path d="M 1128.19,368.16 C 1126.62 368.24, 1125.64 368.56, 1124.15 370.35 C 1122.65 372.14, 1122.27 373.63, 1120.73 377.11 C 1119.18 380.60, 1118.50 383.03, 1116.40 387.78 C 1114.31 392.53, 1112.97 395.42, 1110.25 400.87 C 1107.53 406.32, 1105.78 409.36, 1102.80 415.03 C 1099.82 420.70, 1098.16 423.73, 1095.35 429.23 C 1092.53 434.72, 1091.10 437.50, 1088.72 442.49 C 1086.34 447.49, 1085.28 449.92, 1083.44 454.18 C 1081.61 458.44, 1080.74 460.37, 1079.55 463.81 C 1078.37 467.25, 1077.84 468.84, 1077.51 471.38 C 1077.19 473.91, 1077.48 474.99, 1077.94 476.49 C 1078.40 478.00, 1079.10 478.33, 1079.79 478.91 C 1080.49 479.50, 1080.83 479.38, 1081.40 479.42 C 1081.97 479.47, 1082.12 479.30, 1082.63 479.13 C 1083.15 478.96, 1083.38 479.08, 1083.99 478.58 C 1084.59 478.08, 1085.16 477.82, 1085.66 476.63 C 1086.17 475.44, 1086.18 474.77, 1086.51 472.62 C 1086.84 470.47, 1086.69 469.13, 1087.29 465.89 C 1087.90 462.66, 1088.22 460.66, 1089.54 456.45 C 1090.87 452.24, 1091.80 449.80, 1093.91 444.84 C 1096.02 439.87, 1097.38 437.09, 1100.11 431.64 C 1102.85 426.20, 1104.49 423.19, 1107.57 417.61 C 1110.66 412.02, 1112.47 409.00, 1115.54 403.72 C 1118.61 398.44, 1120.20 395.65, 1122.94 391.21 C 1125.67 386.77, 1127.25 384.82, 1129.22 381.51 C 1131.19 378.20, 1132.21 376.98, 1132.77 374.67 C 1133.33 372.37, 1132.92 371.28, 1132.00 369.98 C 1131.09 368.68, 1129.77 368.09, 1128.19 368.16" style="stroke: black; fill: black;"/><path d="M 1071.88,440.29 C 1072.87 441.54, 1073.66 442.14, 1075.97 442.40 C 1078.29 442.67, 1079.86 442.13, 1083.46 441.61 C 1087.06 441.10, 1089.36 440.43, 1093.99 439.83 C 1098.62 439.22, 1101.43 439.02, 1106.63 438.57 C 1111.82 438.13, 1114.71 437.92, 1119.95 437.59 C 1125.20 437.26, 1128.25 437.16, 1132.85 436.94 C 1137.45 436.72, 1139.70 436.99, 1142.95 436.47 C 1146.21 435.95, 1147.91 435.48, 1149.11 434.33 C 1150.32 433.18, 1150.27 431.76, 1148.96 430.71 C 1147.65 429.67, 1145.88 429.27, 1142.57 429.09 C 1139.25 428.92, 1136.99 429.45, 1132.38 429.84 C 1127.77 430.22, 1124.74 430.64, 1119.51 431.02 C 1114.28 431.40, 1111.44 431.59, 1106.24 431.73 C 1101.04 431.86, 1098.24 431.74, 1093.50 431.70 C 1088.75 431.67, 1086.32 431.38, 1082.53 431.55 C 1078.75 431.71, 1076.86 431.61, 1074.57 432.53 C 1072.27 433.45, 1071.60 434.60, 1071.06 436.15 C 1070.52 437.70, 1070.90 439.04, 1071.88 440.29" style="stroke: black; fill: black;"/><path d="M 1202.06,433.12 C 1202.01 431.45, 1201.40 430.42, 1199.75 429.01 C 1198.09 427.61, 1196.75 426.60, 1193.80 426.09 C 1190.85 425.57, 1188.66 425.67, 1184.99 426.44 C 1181.32 427.21, 1179.35 428.19, 1175.43 429.96 C 1171.50 431.72, 1169.36 432.84, 1165.38 435.26 C 1161.39 437.68, 1159.16 439.10, 1155.50 442.05 C 1151.84 444.99, 1149.93 446.69, 1147.08 450.01 C 1144.24 453.32, 1142.75 455.05, 1141.28 458.63 C 1139.80 462.20, 1139.27 464.33, 1139.71 467.89 C 1140.14 471.44, 1141.05 473.68, 1143.46 476.39 C 1145.86 479.10, 1147.89 480.19, 1151.74 481.44 C 1155.59 482.69, 1158.04 482.71, 1162.70 482.64 C 1167.37 482.56, 1170.02 482.15, 1175.06 481.05 C 1180.11 479.94, 1182.86 479.10, 1187.94 477.11 C 1193.03 475.12, 1195.85 473.82, 1200.50 471.10 C 1205.14 468.39, 1207.44 466.72, 1211.16 463.55 C 1214.89 460.39, 1216.56 458.67, 1219.12 455.28 C 1221.68 451.88, 1222.94 450.07, 1223.96 446.57 C 1224.97 443.08, 1224.79 440.98, 1224.18 437.79 C 1223.57 434.60, 1222.69 432.80, 1220.91 430.63 C 1219.14 428.45, 1217.37 427.47, 1215.30 426.90 C 1213.22 426.34, 1211.76 426.86, 1210.54 427.81 C 1209.33 428.77, 1209.16 430.28, 1209.22 431.67 C 1209.28 433.06, 1210.04 433.69, 1210.84 434.76 C 1211.64 435.82, 1212.37 436.02, 1213.23 437.02 C 1214.10 438.01, 1214.77 438.29, 1215.17 439.75 C 1215.57 441.21, 1215.70 442.08, 1215.23 444.32 C 1214.76 446.56, 1214.54 448.12, 1212.82 450.94 C 1211.10 453.77, 1209.75 455.53, 1206.63 458.44 C 1203.50 461.36, 1201.41 463.02, 1197.21 465.53 C 1193.01 468.03, 1190.32 469.26, 1185.63 470.96 C 1180.94 472.65, 1178.29 473.30, 1173.74 474.00 C 1169.20 474.69, 1166.70 474.71, 1162.89 474.43 C 1159.09 474.16, 1157.23 473.51, 1154.71 472.62 C 1152.19 471.72, 1151.52 471.12, 1150.29 469.96 C 1149.06 468.81, 1148.75 468.44, 1148.58 466.84 C 1148.41 465.23, 1148.48 464.29, 1149.42 461.94 C 1150.36 459.60, 1151.08 457.90, 1153.27 455.12 C 1155.46 452.35, 1157.14 450.66, 1160.36 448.09 C 1163.57 445.52, 1165.72 444.19, 1169.36 442.26 C 1173.01 440.33, 1175.19 439.41, 1178.59 438.45 C 1181.99 437.49, 1183.68 437.47, 1186.36 437.45 C 1189.04 437.43, 1190.02 438.15, 1192.00 438.35 C 1193.97 438.56, 1194.62 438.69, 1196.22 438.49 C 1197.81 438.30, 1198.80 438.44, 1199.97 437.37 C 1201.14 436.29, 1202.10 434.79, 1202.06 433.12" style="stroke: black; fill: black;"/><path d="M 1265.64,431.11 C 1264.06 430.90, 1263.11 431.18, 1261.33 432.47 C 1259.55 433.77, 1258.72 434.91, 1256.74 437.58 C 1254.76 440.24, 1253.70 442.38, 1251.42 445.79 C 1249.14 449.20, 1247.75 451.27, 1245.34 454.62 C 1242.93 457.98, 1241.45 459.68, 1239.37 462.55 C 1237.29 465.42, 1235.75 466.56, 1234.96 468.97 C 1234.17 471.38, 1234.43 472.86, 1235.42 474.60 C 1236.41 476.34, 1237.77 477.32, 1239.91 477.70 C 1242.05 478.07, 1243.87 478.16, 1246.11 476.45 C 1248.35 474.75, 1248.56 472.48, 1251.11 469.19 C 1253.65 465.89, 1255.21 463.70, 1258.83 459.98 C 1262.44 456.27, 1264.79 454.10, 1269.18 450.62 C 1273.56 447.13, 1276.15 445.34, 1280.75 442.54 C 1285.35 439.74, 1287.96 438.40, 1292.18 436.62 C 1296.41 434.84, 1298.68 434.26, 1301.88 433.63 C 1305.09 433.01, 1306.39 433.36, 1308.19 433.49 C 1309.99 433.62, 1310.37 433.52, 1310.88 434.28 C 1311.39 435.04, 1310.89 435.46, 1310.73 437.28 C 1310.57 439.11, 1310.61 440.39, 1310.08 443.39 C 1309.54 446.39, 1309.19 448.53, 1308.06 452.30 C 1306.93 456.06, 1305.99 458.28, 1304.43 462.20 C 1302.86 466.11, 1301.79 468.20, 1300.25 471.88 C 1298.70 475.56, 1297.62 477.38, 1296.70 480.59 C 1295.79 483.80, 1295.76 485.52, 1295.67 487.93 C 1295.58 490.34, 1295.74 491.20, 1296.27 492.62 C 1296.80 494.05, 1297.57 494.50, 1298.32 495.06 C 1299.07 495.62, 1299.42 495.44, 1300.02 495.41 C 1300.62 495.38, 1300.79 495.13, 1301.31 494.89 C 1301.83 494.65, 1302.06 494.68, 1302.60 494.21 C 1303.15 493.74, 1303.54 493.58, 1304.05 492.54 C 1304.55 491.49, 1304.71 490.90, 1305.11 488.99 C 1305.51 487.07, 1305.43 485.77, 1306.03 482.95 C 1306.64 480.14, 1306.93 478.43, 1308.15 474.91 C 1309.36 471.39, 1310.43 469.29, 1312.10 465.36 C 1313.78 461.42, 1314.94 459.23, 1316.51 455.23 C 1318.08 451.23, 1319.13 449.16, 1319.95 445.36 C 1320.78 441.57, 1321.31 439.53, 1320.63 436.27 C 1319.95 433.01, 1318.80 431.28, 1316.54 429.05 C 1314.28 426.82, 1312.62 425.68, 1309.33 425.12 C 1306.04 424.56, 1304.06 425.12, 1300.09 426.23 C 1296.11 427.35, 1293.97 428.47, 1289.47 430.70 C 1284.96 432.93, 1282.39 434.38, 1277.57 437.36 C 1272.75 440.35, 1270.10 442.18, 1265.38 445.62 C 1260.65 449.07, 1258.19 451.23, 1253.96 454.58 C 1249.73 457.93, 1247.59 459.72, 1244.24 462.37 C 1240.88 465.01, 1238.71 465.65, 1237.20 467.80 C 1235.70 469.96, 1236.22 471.60, 1236.70 473.15 C 1237.17 474.70, 1238.23 475.38, 1239.58 475.54 C 1240.92 475.70, 1241.91 475.48, 1243.43 473.95 C 1244.96 472.42, 1245.39 470.72, 1247.20 467.89 C 1249.01 465.06, 1250.11 463.06, 1252.49 459.81 C 1254.87 456.57, 1256.44 454.72, 1259.10 451.64 C 1261.76 448.57, 1263.72 447.12, 1265.79 444.44 C 1267.87 441.76, 1268.77 440.42, 1269.46 438.24 C 1270.15 436.05, 1269.99 434.94, 1269.23 433.51 C 1268.46 432.09, 1267.22 431.32, 1265.64 431.11" style="stroke: black; fill: black;"/></svg>